<svg width="176" height="19" viewBox="0 0 176 19" fill="none" xmlns="http://www.w3.org/2000/svg">
<g id="Fresh Harvests">
<path d="M1.17971 18.1892C0.998665 18.1892 0.850534 18.1312 0.73532 18.0154C0.620107 17.8995 0.5625 17.7506 0.5625 17.5685V1.43136C0.5625 1.2493 0.620107 1.10034 0.73532 0.984488C0.850534 0.868631 0.998665 0.810703 1.17971 0.810703H12.1908C12.3719 0.810703 12.52 0.868631 12.6352 0.984488C12.7504 1.10034 12.808 1.2493 12.808 1.43136V3.54161C12.808 3.72367 12.7504 3.87262 12.6352 3.98848C12.52 4.10434 12.3719 4.16227 12.1908 4.16227H4.41392V8.35792H11.6971C11.8781 8.35792 12.0262 8.41585 12.1414 8.53171C12.2567 8.64757 12.3143 8.79652 12.3143 8.97858V11.0888C12.3143 11.2543 12.2567 11.395 12.1414 11.5109C12.0262 11.6267 11.8781 11.6847 11.6971 11.6847H4.41392V17.5685C4.41392 17.7506 4.35631 17.8995 4.2411 18.0154C4.12589 18.1312 3.97775 18.1892 3.7967 18.1892H1.17971Z" fill="#212337"/>
<path d="M15.1932 18.1892C15.0286 18.1892 14.8887 18.1312 14.7735 18.0154C14.6583 17.8995 14.6007 17.7506 14.6007 17.5685V5.90011C14.6007 5.7346 14.6583 5.59392 14.7735 5.47806C14.8887 5.34566 15.0286 5.27945 15.1932 5.27945H17.6127C17.7773 5.27945 17.9172 5.34566 18.0324 5.47806C18.164 5.59392 18.2299 5.7346 18.2299 5.90011V6.89317C18.6414 6.38009 19.1434 5.98287 19.7359 5.7015C20.3449 5.42014 21.0444 5.27945 21.8344 5.27945H22.896C23.0606 5.27945 23.2005 5.33738 23.3157 5.45324C23.4309 5.56909 23.4885 5.71805 23.4885 5.90011V8.03518C23.4885 8.21724 23.4309 8.3662 23.3157 8.48206C23.2005 8.59791 23.0606 8.65584 22.896 8.65584H20.7234C19.9992 8.65584 19.4314 8.86273 19.0199 9.2765C18.6084 9.67372 18.4027 10.2447 18.4027 10.9895V17.5685C18.4027 17.7506 18.3451 17.8995 18.2299 18.0154C18.1147 18.1312 17.9665 18.1892 17.7855 18.1892H15.1932Z" fill="#212337"/>
<path d="M30.4189 18.4374C28.5261 18.4374 27.0201 17.9078 25.9009 16.8485C24.7981 15.7893 24.2138 14.2501 24.148 12.2308C24.148 12.0984 24.148 11.9246 24.148 11.7095C24.148 11.4778 24.148 11.2957 24.148 11.1633C24.2138 9.88888 24.5019 8.79652 25.0121 7.88622C25.5223 6.95937 26.2383 6.25596 27.16 5.77598C28.0817 5.27945 29.1598 5.03119 30.3942 5.03119C31.7768 5.03119 32.9289 5.32083 33.8506 5.90011C34.7888 6.46284 35.4883 7.24074 35.9491 8.23379C36.4265 9.2103 36.6651 10.3358 36.6651 11.6102V12.1812C36.6651 12.3467 36.5993 12.4874 36.4676 12.6032C36.3524 12.7191 36.2125 12.777 36.0479 12.777H27.9747C27.9747 12.7936 27.9747 12.8267 27.9747 12.8763C27.9747 12.9094 27.9747 12.9425 27.9747 12.9756C27.9912 13.5053 28.0899 13.9935 28.271 14.4404C28.4685 14.8707 28.7401 15.2183 29.0857 15.4831C29.4478 15.7479 29.8758 15.8803 30.3695 15.8803C30.781 15.8803 31.1184 15.8224 31.3818 15.7065C31.6451 15.5907 31.8591 15.45 32.0237 15.2845C32.2047 15.119 32.3364 14.9783 32.4187 14.8624C32.5668 14.6969 32.682 14.5976 32.7643 14.5645C32.8631 14.5149 33.0112 14.49 33.2087 14.49H35.7763C35.9409 14.49 36.0726 14.5397 36.1713 14.639C36.2866 14.7218 36.3359 14.8459 36.3195 15.0114C36.303 15.2762 36.1631 15.6072 35.8998 16.0045C35.6529 16.3851 35.2826 16.7658 34.7888 17.1465C34.295 17.5106 33.6778 17.8168 32.9371 18.065C32.2129 18.3133 31.3735 18.4374 30.4189 18.4374ZM27.9747 10.5178H32.8137V10.4682C32.8137 9.87233 32.7149 9.35925 32.5174 8.92893C32.3364 8.48206 32.0648 8.13449 31.7027 7.88622C31.3406 7.63796 30.9044 7.51383 30.3942 7.51383C29.884 7.51383 29.4478 7.63796 29.0857 7.88622C28.7236 8.13449 28.4438 8.48206 28.2463 8.92893C28.0653 9.35925 27.9747 9.87233 27.9747 10.4682V10.5178Z" fill="#212337"/>
<path d="M43.7004 18.4374C42.6799 18.4374 41.7994 18.3216 41.0587 18.0899C40.3345 17.8416 39.742 17.5437 39.2811 17.1961C38.8367 16.8486 38.4993 16.501 38.2689 16.1534C38.0549 15.7893 37.9397 15.4831 37.9233 15.2348C37.9068 15.0528 37.9644 14.9038 38.0961 14.788C38.2278 14.6721 38.3594 14.6142 38.4911 14.6142H40.8859C40.9353 14.6142 40.9846 14.6224 41.034 14.639C41.0834 14.6556 41.1328 14.6969 41.1822 14.7631C41.3961 14.9121 41.6183 15.0859 41.8488 15.2845C42.0792 15.4665 42.3425 15.6238 42.6388 15.7562C42.9515 15.8886 43.3383 15.9548 43.7991 15.9548C44.3423 15.9548 44.8032 15.8472 45.1817 15.6321C45.5603 15.4003 45.7495 15.0776 45.7495 14.6638C45.7495 14.3659 45.659 14.1176 45.478 13.919C45.3134 13.7204 44.9924 13.5384 44.5151 13.3729C44.0378 13.2073 43.3301 13.0253 42.3919 12.8267C41.5031 12.6281 40.746 12.3632 40.1205 12.0322C39.4951 11.7012 39.026 11.2874 38.7133 10.7909C38.4006 10.2778 38.2442 9.66545 38.2442 8.95376C38.2442 8.30827 38.4417 7.68761 38.8367 7.09178C39.2482 6.49595 39.849 6.00769 40.639 5.62702C41.429 5.2298 42.4166 5.03119 43.6016 5.03119C44.5069 5.03119 45.2969 5.14705 45.9717 5.37876C46.663 5.59392 47.2391 5.87529 47.6999 6.22286C48.1608 6.55387 48.5064 6.90144 48.7369 7.26556C48.9838 7.61313 49.1154 7.91932 49.1319 8.18414C49.1483 8.34965 49.099 8.49033 48.9837 8.60619C48.8685 8.72204 48.7369 8.77997 48.5887 8.77997H46.3914C46.3092 8.77997 46.2351 8.7717 46.1693 8.75515C46.1034 8.72204 46.0458 8.68067 45.9964 8.63101C45.7989 8.49861 45.5932 8.34965 45.3792 8.18414C45.1817 8.00208 44.9431 7.84485 44.6632 7.71244C44.3834 7.58003 44.0213 7.51383 43.5769 7.51383C43.0338 7.51383 42.6141 7.63796 42.3178 7.88622C42.038 8.11794 41.8981 8.41585 41.8981 8.77997C41.8981 9.01169 41.9722 9.22685 42.1203 9.42546C42.2685 9.62407 42.5729 9.80613 43.0338 9.97164C43.4947 10.1371 44.1942 10.3109 45.1323 10.493C46.2515 10.6916 47.1403 10.9895 47.7987 11.3867C48.4571 11.784 48.9261 12.2474 49.2059 12.777C49.5022 13.2901 49.6503 13.8446 49.6503 14.4404C49.6503 15.2183 49.4199 15.9134 48.9591 16.5258C48.4982 17.1216 47.8234 17.5933 46.9346 17.9409C46.0623 18.2719 44.9842 18.4374 43.7004 18.4374Z" fill="#212337"/>
<path d="M52.1437 18.1892C51.9626 18.1892 51.8145 18.1312 51.6993 18.0154C51.5841 17.8995 51.5265 17.7506 51.5265 17.5685V1.1831C51.5265 1.00104 51.5841 0.85208 51.6993 0.736224C51.8145 0.620367 51.9626 0.562439 52.1437 0.562439H54.8101C54.9747 0.562439 55.1146 0.620367 55.2298 0.736224C55.345 0.85208 55.4026 1.00104 55.4026 1.1831V6.76904C55.847 6.23941 56.3901 5.81736 57.032 5.50289C57.6739 5.18842 58.4475 5.03119 59.3528 5.03119C60.3238 5.03119 61.1797 5.25463 61.9204 5.7015C62.6775 6.13183 63.27 6.76904 63.698 7.61313C64.1259 8.44068 64.3399 9.45029 64.3399 10.642V17.5685C64.3399 17.7506 64.2822 17.8995 64.167 18.0154C64.0518 18.1312 63.9037 18.1892 63.7226 18.1892H61.0316C60.867 18.1892 60.7271 18.1312 60.6119 18.0154C60.4967 17.8995 60.4391 17.7506 60.4391 17.5685V10.7909C60.4391 9.91371 60.2251 9.23512 59.7972 8.75515C59.3692 8.25862 58.7602 8.01035 57.9702 8.01035C57.1966 8.01035 56.5712 8.25862 56.0939 8.75515C55.633 9.23512 55.4026 9.91371 55.4026 10.7909V17.5685C55.4026 17.7506 55.345 17.8995 55.2298 18.0154C55.1146 18.1312 54.9747 18.1892 54.8101 18.1892H52.1437Z" fill="#212337"/>
<path d="M72.6445 18.1892C72.4634 18.1892 72.3153 18.1312 72.2001 18.0154C72.0849 17.8995 72.0273 17.7506 72.0273 17.5685V1.43136C72.0273 1.2493 72.0849 1.10034 72.2001 0.984488C72.3153 0.868631 72.4634 0.810703 72.6445 0.810703H75.3355C75.5166 0.810703 75.6647 0.868631 75.7799 0.984488C75.8951 1.10034 75.9527 1.2493 75.9527 1.43136V7.63796H82.6433V1.43136C82.6433 1.2493 82.701 1.10034 82.8162 0.984488C82.9314 0.868631 83.0795 0.810703 83.2606 0.810703H85.9516C86.1327 0.810703 86.2808 0.868631 86.396 0.984488C86.5112 1.10034 86.5688 1.2493 86.5688 1.43136V17.5685C86.5688 17.7506 86.5112 17.8995 86.396 18.0154C86.2808 18.1312 86.1327 18.1892 85.9516 18.1892H83.2606C83.0795 18.1892 82.9314 18.1312 82.8162 18.0154C82.701 17.8995 82.6433 17.7506 82.6433 17.5685V11.1633H75.9527V17.5685C75.9527 17.7506 75.8951 17.8995 75.7799 18.0154C75.6647 18.1312 75.5166 18.1892 75.3355 18.1892H72.6445Z" fill="#212337"/>
<path d="M93.2423 18.4374C92.3699 18.4374 91.5881 18.2719 90.8969 17.9409C90.2056 17.5933 89.6542 17.1299 89.2427 16.5506C88.8312 15.9713 88.6255 15.3259 88.6255 14.6142C88.6255 13.4391 89.0946 12.5122 90.0328 11.8336C90.9874 11.155 92.2383 10.6916 93.7854 10.4433L97.0196 9.97164V9.52477C97.0196 8.87928 96.8715 8.38275 96.5752 8.03518C96.279 7.68761 95.7605 7.51383 95.0198 7.51383C94.4767 7.51383 94.0405 7.62141 93.7113 7.83657C93.3822 8.05173 93.1271 8.3331 92.946 8.68067C92.8143 8.89583 92.6251 9.00341 92.3782 9.00341H90.0328C89.8517 9.00341 89.7118 8.95376 89.613 8.85445C89.5143 8.7386 89.4731 8.60619 89.4896 8.45723C89.4896 8.17587 89.5966 7.84485 89.8106 7.46417C90.0245 7.0835 90.3537 6.71111 90.7981 6.34699C91.2425 5.96632 91.8103 5.65185 92.5016 5.40358C93.1929 5.15532 94.0405 5.03119 95.0445 5.03119C96.0815 5.03119 96.9702 5.15532 97.7109 5.40358C98.4516 5.65185 99.0441 5.99942 99.4885 6.44629C99.9329 6.89317 100.262 7.41452 100.476 8.01035C100.69 8.58964 100.797 9.21857 100.797 9.89716V17.5685C100.797 17.7506 100.739 17.8995 100.624 18.0154C100.509 18.1312 100.361 18.1892 100.18 18.1892H97.7603C97.5957 18.1892 97.4558 18.1312 97.3406 18.0154C97.2254 17.8995 97.1677 17.7506 97.1677 17.5685V16.6499C96.9538 16.9644 96.6657 17.2623 96.3036 17.5437C95.9416 17.8085 95.5054 18.0237 94.9951 18.1892C94.5014 18.3547 93.9171 18.4374 93.2423 18.4374ZM94.2298 15.8555C94.773 15.8555 95.2585 15.7396 95.6864 15.5079C96.1144 15.2762 96.4518 14.9204 96.6987 14.4404C96.9456 13.9604 97.069 13.3563 97.069 12.6281V12.206L94.773 12.5784C93.8842 12.7274 93.234 12.9508 92.8226 13.2487C92.4111 13.5466 92.2053 13.9108 92.2053 14.3411C92.2053 14.6556 92.2959 14.9286 92.4769 15.1604C92.6744 15.3921 92.9295 15.5659 93.2423 15.6817C93.555 15.7976 93.8842 15.8555 94.2298 15.8555Z" fill="#212337"/>
<path d="M103.885 18.1892C103.72 18.1892 103.58 18.1312 103.465 18.0154C103.35 17.8995 103.292 17.7506 103.292 17.5685V5.90011C103.292 5.7346 103.35 5.59392 103.465 5.47806C103.58 5.34566 103.72 5.27945 103.885 5.27945H106.304C106.469 5.27945 106.609 5.34566 106.724 5.47806C106.856 5.59392 106.922 5.7346 106.922 5.90011V6.89317C107.333 6.38009 107.835 5.98287 108.428 5.7015C109.037 5.42014 109.736 5.27945 110.526 5.27945H111.588C111.752 5.27945 111.892 5.33738 112.008 5.45324C112.123 5.56909 112.18 5.71805 112.18 5.90011V8.03518C112.18 8.21724 112.123 8.3662 112.008 8.48206C111.892 8.59791 111.752 8.65584 111.588 8.65584H109.415C108.691 8.65584 108.123 8.86273 107.712 9.2765C107.3 9.67372 107.094 10.2447 107.094 10.9895V17.5685C107.094 17.7506 107.037 17.8995 106.922 18.0154C106.806 18.1312 106.658 18.1892 106.477 18.1892H103.885Z" fill="#212337"/>
<path d="M118.07 18.1892C117.823 18.1892 117.634 18.1312 117.502 18.0154C117.387 17.883 117.288 17.734 117.206 17.5685L112.565 6.04907C112.532 5.98287 112.515 5.90839 112.515 5.82563C112.515 5.67667 112.565 5.55254 112.663 5.45324C112.779 5.33738 112.91 5.27945 113.059 5.27945H115.453C115.667 5.27945 115.824 5.33738 115.922 5.45324C116.038 5.56909 116.112 5.67667 116.145 5.77598L119.181 13.9687L122.218 5.77598C122.267 5.67667 122.341 5.56909 122.44 5.45324C122.555 5.33738 122.712 5.27945 122.909 5.27945H125.304C125.452 5.27945 125.576 5.33738 125.674 5.45324C125.79 5.55254 125.847 5.67667 125.847 5.82563C125.847 5.90839 125.839 5.98287 125.823 6.04907L121.156 17.5685C121.091 17.734 120.992 17.883 120.86 18.0154C120.728 18.1312 120.539 18.1892 120.292 18.1892H118.07Z" fill="#212337"/>
<path d="M132.697 18.4374C130.804 18.4374 129.298 17.9078 128.179 16.8485C127.076 15.7893 126.492 14.2501 126.426 12.2308C126.426 12.0984 126.426 11.9246 126.426 11.7095C126.426 11.4778 126.426 11.2957 126.426 11.1633C126.492 9.88888 126.78 8.79652 127.29 7.88622C127.801 6.95937 128.517 6.25596 129.438 5.77598C130.36 5.27945 131.438 5.03119 132.672 5.03119C134.055 5.03119 135.207 5.32083 136.129 5.90011C137.067 6.46284 137.767 7.24074 138.227 8.23379C138.705 9.2103 138.943 10.3358 138.943 11.6102V12.1812C138.943 12.3467 138.878 12.4874 138.746 12.6032C138.631 12.7191 138.491 12.777 138.326 12.777H130.253C130.253 12.7936 130.253 12.8267 130.253 12.8763C130.253 12.9094 130.253 12.9425 130.253 12.9756C130.269 13.5053 130.368 13.9935 130.549 14.4404C130.747 14.8707 131.018 15.2183 131.364 15.4831C131.726 15.7479 132.154 15.8803 132.648 15.8803C133.059 15.8803 133.397 15.8224 133.66 15.7065C133.923 15.5907 134.137 15.45 134.302 15.2845C134.483 15.119 134.615 14.9783 134.697 14.8624C134.845 14.6969 134.96 14.5976 135.043 14.5645C135.141 14.5149 135.289 14.49 135.487 14.49H138.055C138.219 14.49 138.351 14.5397 138.45 14.639C138.565 14.7218 138.614 14.8459 138.598 15.0114C138.581 15.2762 138.441 15.6072 138.178 16.0045C137.931 16.3851 137.561 16.7658 137.067 17.1465C136.573 17.5106 135.956 17.8168 135.215 18.065C134.491 18.3133 133.652 18.4374 132.697 18.4374ZM130.253 10.5178H135.092V10.4682C135.092 9.87233 134.993 9.35925 134.796 8.92893C134.615 8.48206 134.343 8.13449 133.981 7.88622C133.619 7.63796 133.183 7.51383 132.672 7.51383C132.162 7.51383 131.726 7.63796 131.364 7.88622C131.002 8.13449 130.722 8.48206 130.525 8.92893C130.343 9.35925 130.253 9.87233 130.253 10.4682V10.5178Z" fill="#212337"/>
<path d="M145.979 18.4374C144.958 18.4374 144.078 18.3216 143.337 18.0899C142.613 17.8416 142.02 17.5437 141.559 17.1961C141.115 16.8486 140.778 16.501 140.547 16.1534C140.333 15.7893 140.218 15.4831 140.201 15.2348C140.185 15.0528 140.243 14.9038 140.374 14.788C140.506 14.6721 140.638 14.6142 140.769 14.6142H143.164C143.214 14.6142 143.263 14.6224 143.312 14.639C143.362 14.6556 143.411 14.6969 143.46 14.7631C143.674 14.9121 143.897 15.0859 144.127 15.2845C144.357 15.4665 144.621 15.6238 144.917 15.7562C145.23 15.8886 145.617 15.9548 146.077 15.9548C146.621 15.9548 147.081 15.8472 147.46 15.6321C147.838 15.4003 148.028 15.0776 148.028 14.6638C148.028 14.3659 147.937 14.1176 147.756 13.919C147.592 13.7204 147.271 13.5384 146.793 13.3729C146.316 13.2073 145.608 13.0253 144.67 12.8267C143.781 12.6281 143.024 12.3632 142.399 12.0322C141.773 11.7012 141.304 11.2874 140.992 10.7909C140.679 10.2778 140.522 9.66545 140.522 8.95376C140.522 8.30827 140.72 7.68761 141.115 7.09178C141.526 6.49595 142.127 6.00769 142.917 5.62702C143.707 5.2298 144.695 5.03119 145.88 5.03119C146.785 5.03119 147.575 5.14705 148.25 5.37876C148.941 5.59392 149.517 5.87529 149.978 6.22286C150.439 6.55387 150.785 6.90144 151.015 7.26556C151.262 7.61313 151.394 7.91932 151.41 8.18414C151.427 8.34965 151.377 8.49033 151.262 8.60619C151.147 8.72204 151.015 8.77997 150.867 8.77997H148.67C148.587 8.77997 148.513 8.7717 148.447 8.75515C148.382 8.72204 148.324 8.68067 148.275 8.63101C148.077 8.49861 147.871 8.34965 147.657 8.18414C147.46 8.00208 147.221 7.84485 146.941 7.71244C146.662 7.58003 146.3 7.51383 145.855 7.51383C145.312 7.51383 144.892 7.63796 144.596 7.88622C144.316 8.11794 144.176 8.41585 144.176 8.77997C144.176 9.01169 144.25 9.22685 144.399 9.42546C144.547 9.62407 144.851 9.80613 145.312 9.97164C145.773 10.1371 146.472 10.3109 147.411 10.493C148.53 10.6916 149.419 10.9895 150.077 11.3867C150.735 11.784 151.204 12.2474 151.484 12.777C151.78 13.2901 151.929 13.8446 151.929 14.4404C151.929 15.2183 151.698 15.9134 151.237 16.5258C150.776 17.1216 150.102 17.5933 149.213 17.9409C148.34 18.2719 147.262 18.4374 145.979 18.4374Z" fill="#212337"/>
<path d="M159.929 18.1892C158.908 18.1892 158.036 18.0237 157.312 17.6926C156.587 17.3451 156.036 16.8154 155.658 16.1038C155.295 15.3921 155.114 14.4983 155.114 13.4225V8.20897H153.189C153.008 8.20897 152.859 8.15104 152.744 8.03518C152.629 7.91932 152.571 7.77037 152.571 7.58831V5.90011C152.571 5.71805 152.629 5.56909 152.744 5.45324C152.859 5.33738 153.008 5.27945 153.189 5.27945H155.114V1.1831C155.114 1.00104 155.172 0.85208 155.287 0.736224C155.419 0.620367 155.567 0.562439 155.732 0.562439H158.151C158.332 0.562439 158.48 0.620367 158.595 0.736224C158.711 0.85208 158.768 1.00104 158.768 1.1831V5.27945H161.854C162.019 5.27945 162.159 5.33738 162.274 5.45324C162.389 5.56909 162.447 5.71805 162.447 5.90011V7.58831C162.447 7.77037 162.389 7.91932 162.274 8.03518C162.159 8.15104 162.019 8.20897 161.854 8.20897H158.768V13.1246C158.768 13.7535 158.875 14.2501 159.089 14.6142C159.32 14.9617 159.715 15.1355 160.274 15.1355H162.077C162.241 15.1355 162.381 15.1935 162.496 15.3093C162.611 15.4252 162.669 15.5659 162.669 15.7314V17.5685C162.669 17.7506 162.611 17.8995 162.496 18.0154C162.381 18.1312 162.241 18.1892 162.077 18.1892H159.929Z" fill="#212337"/>
<path d="M169.39 18.4374C168.37 18.4374 167.489 18.3216 166.749 18.0899C166.024 17.8416 165.432 17.5437 164.971 17.1961C164.527 16.8486 164.189 16.501 163.959 16.1534C163.745 15.7893 163.63 15.4831 163.613 15.2348C163.597 15.0528 163.654 14.9038 163.786 14.788C163.918 14.6721 164.049 14.6142 164.181 14.6142H166.576C166.625 14.6142 166.675 14.6224 166.724 14.639C166.773 14.6556 166.823 14.6969 166.872 14.7631C167.086 14.9121 167.308 15.0859 167.539 15.2845C167.769 15.4665 168.032 15.6238 168.329 15.7562C168.641 15.8886 169.028 15.9548 169.489 15.9548C170.032 15.9548 170.493 15.8472 170.872 15.6321C171.25 15.4003 171.439 15.0776 171.439 14.6638C171.439 14.3659 171.349 14.1176 171.168 13.919C171.003 13.7204 170.682 13.5384 170.205 13.3729C169.728 13.2073 169.02 13.0253 168.082 12.8267C167.193 12.6281 166.436 12.3632 165.811 12.0322C165.185 11.7012 164.716 11.2874 164.403 10.7909C164.091 10.2778 163.934 9.66545 163.934 8.95376C163.934 8.30827 164.132 7.68761 164.527 7.09178C164.938 6.49595 165.539 6.00769 166.329 5.62702C167.119 5.2298 168.107 5.03119 169.292 5.03119C170.197 5.03119 170.987 5.14705 171.662 5.37876C172.353 5.59392 172.929 5.87529 173.39 6.22286C173.851 6.55387 174.196 6.90144 174.427 7.26556C174.674 7.61313 174.805 7.91932 174.822 8.18414C174.838 8.34965 174.789 8.49033 174.674 8.60619C174.558 8.72204 174.427 8.77997 174.279 8.77997H172.081C171.999 8.77997 171.925 8.7717 171.859 8.75515C171.793 8.72204 171.736 8.68067 171.686 8.63101C171.489 8.49861 171.283 8.34965 171.069 8.18414C170.872 8.00208 170.633 7.84485 170.353 7.71244C170.073 7.58003 169.711 7.51383 169.267 7.51383C168.724 7.51383 168.304 7.63796 168.008 7.88622C167.728 8.11794 167.588 8.41585 167.588 8.77997C167.588 9.01169 167.662 9.22685 167.81 9.42546C167.958 9.62407 168.263 9.80613 168.724 9.97164C169.185 10.1371 169.884 10.3109 170.822 10.493C171.942 10.6916 172.83 10.9895 173.489 11.3867C174.147 11.784 174.616 12.2474 174.896 12.777C175.192 13.2901 175.34 13.8446 175.34 14.4404C175.34 15.2183 175.11 15.9134 174.649 16.5258C174.188 17.1216 173.513 17.5933 172.625 17.9409C171.752 18.2719 170.674 18.4374 169.39 18.4374Z" fill="#212337"/>
</g>
</svg>
