<svg width="40" height="39" viewBox="0 0 40 39" fill="none" xmlns="http://www.w3.org/2000/svg">
<g id="Logo">
<path id="Vector" d="M19.9062 10.3593C19.9062 15.4075 15.8139 19.4999 10.7656 19.4999H1.625V10.3593C1.625 5.31108 5.71739 1.21869 10.7656 1.21869C15.8139 1.21869 19.9062 5.31108 19.9062 10.3593Z" fill="#749B3F"/>
<path id="Vector_2" d="M19.9062 28.6407C19.9062 23.5925 23.9987 19.5001 29.0469 19.5001H38.1875V28.6407C38.1875 33.6889 34.0951 37.7813 29.0469 37.7813C23.9987 37.7813 19.9062 33.6889 19.9062 28.6407Z" fill="#749B3F"/>
<path id="Vector_3" d="M1.625 28.6407C1.625 33.6889 5.71739 37.7813 10.7656 37.7813H19.9062V28.6407C19.9062 23.5925 15.8139 19.5001 10.7656 19.5001C5.71739 19.5001 1.625 23.5925 1.625 28.6407Z" fill="#749B3F"/>
<path id="Vector_4" d="M38.1875 10.3593C38.1875 5.31108 34.0951 1.21869 29.0469 1.21869H19.9062V10.3593C19.9062 15.4075 23.9987 19.4999 29.0469 19.4999C34.0951 19.4999 38.1875 15.4075 38.1875 10.3593Z" fill="#749B3F"/>
</g>
</svg>
